<svg id="0bb21491-6a95-4ef7-be65-fc143e1c6128" data-name="Layer 1" xmlns="http://www.w3.org/2000/svg" viewBox="0 0 256 228.11"><title>airforce</title><path d="M0,53l11,8,101.77,73.9q5.73,4.16,11.46,8.29a1.38,1.38,0,0,1,.69,1.75c-2.3,7-4.57,14-6.86,21a4.59,4.59,0,0,1-.41.73c-2-1.45-4-2.84-5.9-4.24q-44.71-32.46-89.4-65A7.78,7.78,0,0,1,20,94.68Q10.22,74.6.57,54.44C.4,54.07.27,53.68,0,53Z" transform="translate(0 -17)" fill="#fff"/><path d="M138.31,166.59c-1-3.13-2-6.07-3-9-1.34-4.12-2.62-8.26-4-12.36a1.64,1.64,0,0,1,.73-2.21Q163,120.65,193.8,98.22L246,60.28,254.71,54c.29-.21.61-.38,1.29-.81-1.58,3.3-3,6.21-4.36,9.12Q243.81,78.6,236,94.9a5.67,5.67,0,0,1-1.67,2q-47.5,34.56-95,69Z" transform="translate(0 -17)" fill="#fff"/><path d="M229.48,108.34q-2.61,5.47-5.24,10.94c-4.82,10-9.61,20.06-14.48,30.05a7.4,7.4,0,0,1-2.21,2.63q-13.47,9.89-27,19.62a4.26,4.26,0,0,1-2.29.85c-12.22.06-24.44,0-36.67,0-.13,0-.27,0-.8-.1l88.47-64.26Z" transform="translate(0 -17)" fill="#fff"/><path d="M26.22,107.69l89.05,64.67c-.69,0-1.08.11-1.47.11-11.84,0-23.69,0-35.53,0a5.18,5.18,0,0,1-2.83-.92q-13.86-9.94-27.62-20a4.33,4.33,0,0,1-1.29-1.61C39.81,136,33.11,122,26.22,107.69Z" transform="translate(0 -17)" fill="#fff"/><path d="M17.46,17.12l30.1,62.6-.18.18L43.1,76.81Q23.42,62.52,3.71,48.22c-.64-.47-1-.84-.54-1.7q7-14.39,13.86-28.78A5.65,5.65,0,0,1,17.46,17.12Z" transform="translate(0 -17)" fill="#fff"/><path d="M208.47,79.7c10-20.79,20-41.59,30.17-62.7L253.3,47.49,208.67,79.9Z" transform="translate(0 -17)" fill="#fff"/><path d="M152.26,227.78c-4.85,3.53-9.53,6.94-14.22,10.34-3,2.17-6,4.31-8.92,6.5a1.47,1.47,0,0,1-2,.15q-11.42-8.36-22.86-16.65a3.44,3.44,0,0,1-.41-.47l5.43-4q8.87-6.43,17.72-12.89a1.42,1.42,0,0,1,2-.08c7.49,5.49,15,10.93,22.52,16.4C151.71,227.26,151.9,227.46,152.26,227.78Z" transform="translate(0 -17)" fill="#fff"/><path d="M98.83,224.2,69.52,202.91a10.41,10.41,0,0,1,.88-.83c7.43-5.4,14.88-10.78,22.29-16.21a1.48,1.48,0,0,1,2.09,0q6.25,4.63,12.58,9.15a1.31,1.31,0,0,1,.61,1.74c-3,9-5.89,18.06-8.84,27.09C99.11,223.94,99,224,98.83,224.2Z" transform="translate(0 -17)" fill="#fff"/><path d="M186.56,202.88l-29.49,21.41c-.9-2.74-1.77-5.36-2.63-8-2.08-6.4-4.14-12.81-6.27-19.19a1.69,1.69,0,0,1,.76-2.31c4.16-2.93,8.27-5.93,12.37-8.95a1.4,1.4,0,0,1,2-.05q11.19,8.17,22.42,16.29C185.94,202.29,186.17,202.53,186.56,202.88Z" transform="translate(0 -17)" fill="#fff"/><path d="M141.47,189.33a13.46,13.46,0,1,1-26.91-.1,13.46,13.46,0,1,1,26.91.1Z" transform="translate(0 -17)" fill="#fff"/></svg>