<svg id="0c8f27b9-dc82-429d-a0c1-ed487f66c8b7" data-name="Layer 1" xmlns="http://www.w3.org/2000/svg" viewBox="0 0 256 256.29"><title>nsf</title><path d="M88.67,100.79c7,.52,8.08,3.4,8.08,8.61v26.35h-.17L66.4,98.62H48.06v2.17c1.13,0,2.52.27,7.39,6.26v41.22c0,5.74-2.44,6.35-7.66,7v2.18H67.54v-2.18c-6.44-.7-8.27-2.34-8.27-8.61V111.84h.18L98.15,159h2.43V107.75c0-4.17.52-6.17,6.78-7V98.62H88.67Z" fill="#fff"/><path d="M144.22,124.88l-12.78-6.35c-7.31-3.65-9-5.56-9-10.26,0-5.65,4.78-8.26,9.3-8.26,10.26,0,15.48,10,17.05,16.09h2.43V97.23h-2.61c-.43,1.65-.86,3-2.86,3-2.53,0-6.61-2.86-13.57-2.86-16.52,0-19.22,11.82-19.22,17.13,0,4,0,11.47,14.87,18.61l5.83,2.78c5.65,2.7,9.74,4.78,9.74,10.61,0,1.13-.44,9.74-10.87,9.74-11,0-16.09-9.83-17.83-18.61h-2.52v21.48h2.52c.35-1.39.78-3,2.61-3,2.69,0,6.61,3,14.87,3,16,0,21.57-10.53,21.57-18.18A18,18,0,0,0,144.22,124.88Z" fill="#fff"/><path d="M158.91,100.79c4.08.27,7.65.44,7.65,6.17v42.09c0,5.4-2.7,5.66-7.65,6.18v2.18h31.3v-2.18c-6.09-.26-9.57-.43-9.57-6.18V128.79c11,0,12.35,6.35,13.31,13.48h2.17V112.88H194c-1.22,7-2.52,13.13-13.31,13V105.66c0-3.74,1.57-4.08,6.26-4.08,15,0,17.31,5.47,19.22,14.52h2.09V98.62h-49.3Z" fill="#fff"/><path d="M236.19,114.05q-1.23-3.21-2.25-6.49a95.53,95.53,0,0,1-.34-11.77c1.48-7.67,7-11.72,13.65-14.22-.77-1.94-1.73-4.25-2.39-5.86-7.17,3.47-15.79,4.09-22.28-2-1.38-1.46-2.73-3-4-4.49a93,93,0,0,1-5.26-11.56c-1.56-7.65,2-13.51,7.18-18.36C219,37.77,217.24,36,216,34.76c-5.29,6-13,9.83-21.36,6.66-1.6-.72-3.18-1.46-4.74-2.25a91.38,91.38,0,0,1-9.66-9c-4.37-6.46-3.33-13.23-.4-19.7-1.92-.83-4.23-1.79-5.84-2.45-2.61,7.52-8.27,14.05-17.19,14.32-2.72-.08-5.43-.23-8.15-.52-3.46-1.14-6.75-2.49-9.63-3.77-6.51-4.29-8.14-11-7.91-18-2.09,0-4.59,0-6.33,0,.46,8-2.26,16.16-10.4,19.81-1.88.71-3.78,1.39-5.69,2a93.93,93.93,0,0,1-12.66.43c-7.66-1.48-11.71-7-14.21-13.66C79.9,9.35,77.58,10.31,76,11c3.47,7.18,4.09,15.8-2,22.29-1.64,1.55-3.32,3.05-5.06,4.51a98.34,98.34,0,0,1-11.25,5.08c-7.64,1.56-13.5-2-18.36-7.18-1.5,1.46-3.27,3.23-4.5,4.46,5.95,5.29,9.83,13,6.65,21.36C40.65,63.23,39.84,65,39,66.65a93.51,93.51,0,0,1-8.53,9.09c-6.45,4.37-13.23,3.32-19.7.39C9.92,78.06,9,80.37,8.3,82c7.52,2.62,14.06,8.28,14.32,17.19-.07,2.37-.19,4.73-.41,7.1A101.92,101.92,0,0,1,18.09,117c-4.3,6.5-11,8.13-18.06,7.9,0,2.09,0,4.59,0,6.33,8-.47,16.16,2.26,19.81,10.41.73,1.92,1.42,3.87,2.05,5.84a94.29,94.29,0,0,1,.42,12.58c-1.48,7.66-7,11.71-13.66,14.21.77,1.95,1.73,4.26,2.4,5.87,7.17-3.48,15.79-4.09,22.28,2,1.52,1.61,3,3.26,4.43,5a95.08,95.08,0,0,1,5.06,11.2c1.57,7.64-2,13.5-7.18,18.35,1.46,1.5,3.23,3.27,4.46,4.5,5.29-5.95,13-9.82,21.36-6.65q2.79,1.24,5.51,2.64a94.5,94.5,0,0,1,9,8.47c4.38,6.45,3.33,13.23.39,19.7,1.93.84,4.24,1.79,5.84,2.46,2.62-7.53,8.28-14.07,17.2-14.32,2.28.06,4.55.18,6.83.38a95.35,95.35,0,0,1,11.31,4.29c6.51,4.3,8.13,11,7.9,18.06,2.1,0,4.6,0,6.34,0-.47-8,2.26-16.16,10.4-19.81,2.15-.82,4.33-1.59,6.54-2.27a99.14,99.14,0,0,1,11.74-.34c7.66,1.48,11.71,7,14.21,13.67,1.94-.78,4.26-1.74,5.86-2.4-3.47-7.18-4.09-15.8,2-22.29,1.64-1.55,3.32-3,5.06-4.5a96.49,96.49,0,0,1,10.66-4.78c7.64-1.56,13.51,2,18.36,7.18,1.5-1.46,3.27-3.23,4.5-4.45-5.95-5.3-9.83-13-6.65-21.37,1-2.32,2.14-4.6,3.35-6.85a98.53,98.53,0,0,1,7.83-8.26c6.46-4.37,13.24-3.32,19.71-.39.82-1.92,1.78-4.23,2.45-5.85-7.52-2.6-14.06-8.26-14.32-17.18.07-2.5.2-5,.45-7.5a101.25,101.25,0,0,1,3.95-10.22c4.3-6.5,11-8.13,18.06-7.9,0-2.09,0-4.59,0-6.33C248.05,124.91,239.84,122.18,236.19,114.05ZM205.4,62.21c2.95.75,5.63,3.62,7.81,6.24,2.08,3.28,4.57,6.74,5.63,10.8l-.46,1.7c-1.19,2.76-4.64,3.43-7.31,4.29l-3.74.59a90.64,90.64,0,0,0-10.51-15.52c.92-1.48,1.89-2.94,2.89-4.37C201.21,64.1,202.88,62.12,205.4,62.21Zm4.91,34.5,0,.12c.21.54.41,1.08.6,1.63a2.83,2.83,0,0,1,.11.31c.18.5.36,1,.52,1.5,0,.15.1.29.14.44.16.48.32,1,.47,1.46h0A87.62,87.62,0,0,1,215.62,119c0,.29,0,.58.08.88s.07.74.1,1.12,0,.74.08,1.11,0,.56.05.84c0,.43,0,.85.07,1.27,0,.21,0,.41,0,.62,0,.48,0,1,0,1.43s0,1.24,0,1.87c0,.2,0,.41,0,.62h0q0,3.85-.38,7.62h0A87.37,87.37,0,0,1,212.51,153h0q-1,3.5-2.33,6.86c-.31.83-.64,1.65-1,2.46h0c-.14.32-.28.63-.41.94l-.38.87c-.2.44-.41.88-.61,1.31-.06.14-.13.28-.19.41l-.75,1.54-.06.12-.84,1.64h0a88.68,88.68,0,0,1-9.62,14.54h0c-.75.91-1.51,1.8-2.28,2.68l-.14.16c-.77.87-1.56,1.73-2.37,2.57h0c-.65.68-1.32,1.35-2,2h0q-.65.65-1.32,1.26l-.08.08c-.41.39-.83.77-1.25,1.15l-.4.36c-.33.29-.66.59-1,.87l-1,.88-.45.38h0a88.23,88.23,0,0,1-14,9.43h0l-.84.44c-.29.15-.57.31-.86.45l-1.15.58-.5.26-1.37.65-.24.11-1.54.7c-.85.37-1.7.74-2.56,1.08h0c-.54.23-1.09.44-1.64.65l-.18.07-1.54.56-.37.14-1.42.49-.5.16-1.38.44h0a88.06,88.06,0,0,1-16.72,3.41h0l-1.17.11-.84.07-1.15.09-.87,0-1.16.07-.84,0-1.2,0-2,0h-.77q-3.75,0-7.41-.37a87.58,87.58,0,0,1-17.09-3.3h0L101,212l-.09,0-1.63-.55-.2-.06c-1.09-.38-2.16-.78-3.23-1.19h0c-.87-.35-1.74-.7-2.6-1.07q-3.4-1.47-6.66-3.21h0a87.73,87.73,0,0,1-14.13-9.38h0c-.45-.37-.89-.73-1.32-1.1L71,195.3c-.4-.34-.81-.69-1.21-1.05l-.26-.23c-.38-.33-.75-.67-1.12-1l-.31-.28-1.09-1c-.6-.58-1.19-1.17-1.78-1.76-1.78-1.81-3.49-3.69-5.11-5.65h0a88.56,88.56,0,0,1-9.77-14.53h0q-1.73-3.21-3.19-6.57h0c-.32-.74-.63-1.49-.93-2.24h0c-.22-.55-.44-1.1-.65-1.66a1.46,1.46,0,0,0-.07-.19c-.2-.53-.39-1.07-.59-1.61,0-.08-.05-.15-.07-.23-.2-.54-.38-1.1-.56-1.65a1.21,1.21,0,0,1,0-.14c-.19-.58-.37-1.17-.55-1.75h0a87.09,87.09,0,0,1-3.36-17h0c-.23-2.39-.37-4.82-.4-7.27h0c0-.43,0-.86,0-1.28s0-.81,0-1.22h0c0-.63,0-1.27,0-1.91v0c0-.63,0-1.25.08-1.87V123c.07-1.24.17-2.48.29-3.71h0a88.18,88.18,0,0,1,3.34-16.74h0c.16-.53.32-1.06.49-1.58,0-.1.06-.19.1-.29.15-.47.3-.93.46-1.39l.21-.59.42-1.16c.12-.34.25-.68.38-1s.2-.53.31-.79h0c.35-.91.73-1.8,1.12-2.69,1-2.25,2-4.45,3.19-6.6a88,88,0,0,1,9.21-13.81h0c.36-.44.72-.88,1.09-1.31l.13-.16,1-1.18.31-.35.92-1,.46-.49c.28-.31.57-.61.86-.91h0c.64-.68,1.3-1.34,2-2q2.64-2.59,5.49-5a88.64,88.64,0,0,1,14.68-9.86q3.12-1.68,6.38-3.09c.86-.37,1.72-.74,2.58-1.08l1.32-.51.51-.19,1.4-.51.4-.14,1.53-.51.23-.08,1.67-.52a87.73,87.73,0,0,1,16.85-3.32q1.75-.18,3.54-.27h0l1.7-.07h.18l1.74,0h2.79l1.79,0h.19l1.71.08.26,0c1.17.07,2.34.16,3.5.27h0a87.63,87.63,0,0,1,16.44,3.24q3.33,1,6.56,2.24,1.65.64,3.27,1.35c2.21,1,4.37,2,6.47,3.13h0a88.84,88.84,0,0,1,13.84,9.18l1.3,1.08.2.17,1.14,1,.52.46.84.75c1.2,1.1,2.36,2.22,3.5,3.38h0q2.52,2.56,4.82,5.33a88.21,88.21,0,0,1,9.76,14.37l.1.18c.27.5.54,1,.8,1.52s.37.72.55,1.09l.27.55c.23.47.45.94.67,1.41l.1.2c.24.52.48,1.05.71,1.57.34.77.66,1.54,1,2.32h0C209.86,95.56,210.09,96.13,210.31,96.71ZM174.72,37.46c2.73-.4,5.92.9,8.73,2.33,3.31,2.36,7.2,4.68,9.87,8.21l.23,1.75c0,3-3,4.93-5.11,6.75-1.16.7-2.31,1.41-3.45,2.12a89.84,89.84,0,0,0-15.16-10.06c.3-1.83.65-3.66,1-5.47C171.57,40.81,172.34,38.34,174.72,37.46Zm-38-10.55C140,25,145.26,25.66,149,26c.81.09,1.6.21,2.38.35A25.21,25.21,0,0,1,158.12,29l.88,1.52c1.11,2.79-.85,5.7-2.14,8.2-.86,1.16-1.7,2.33-2.54,3.49a89.62,89.62,0,0,0-18-3.53q-.58-2.52-1-5.07C135.08,31.21,134.85,28.62,136.7,26.91ZM97.27,31.28c1.83-2.44,5.52-3.82,8.77-4.83,3.81-.67,7.94-1.62,12.08-1.05l1.39,1.08c2.1,2.14,1.39,5.58,1.17,8.39-.31,1.25-.61,2.51-.91,3.76a89.81,89.81,0,0,0-18.35,3.61c-1-1.39-2-2.82-2.88-4.27C97.42,35.87,96.22,33.58,97.27,31.28Zm-28,11c3.13-2,6.44-4.3,10.3-5.3l1.7.46c2.75,1.19,3.42,4.63,4.28,7.31.19,1.28.4,2.55.6,3.82A90.86,90.86,0,0,0,70.24,59.26c-1.45-.9-2.88-1.85-4.28-2.83-1.84-1.51-3.83-3.17-3.73-5.7C63.05,47.5,66.43,44.58,69.23,42.3ZM40.42,71.82c2.15-3.1,4.36-6.56,7.6-9l1.75-.22c3,0,4.93,3,6.75,5.1.67,1.13,1.36,2.24,2,3.35a90,90,0,0,0-10,15.07c-1.74-.29-3.47-.62-5.19-1-2.28-.68-4.75-1.46-5.62-3.83C37.29,78.31,38.85,74.81,40.42,71.82ZM26,107.35a31.62,31.62,0,0,1,3.2-9.48L30.74,97c2.78-1.11,5.69.85,8.19,2.14l3.2,2.32a89.32,89.32,0,0,0-3.63,18.31c-1.63.37-3.28.7-4.93,1-2.37.24-4.95.47-6.66-1.39C25,116.19,25.62,111.08,26,107.35Zm5.31,51.53c-2.49-1.86-3.87-5.65-4.88-8.95-.67-3.78-1.61-7.88-1-12l1.08-1.39c2.14-2.09,5.59-1.39,8.38-1.16l3.61.87a90.16,90.16,0,0,0,3.66,18.55c-1.35,1-2.72,1.9-4.12,2.79C35.91,158.74,33.62,159.93,31.32,158.88Zm19.35,34.9c-3.21-.81-6.1-4.14-8.37-6.93-2-3.1-4.26-6.4-5.26-10.22l.46-1.7c1.19-2.76,4.63-3.43,7.3-4.28l3.67-.58A89.89,89.89,0,0,0,59.12,185.9c-.89,1.4-1.8,2.79-2.75,4.16C54.86,191.9,53.2,193.88,50.67,193.78ZM81.5,218.42c-3.1.46-6.79-1.28-9.86-2.91-3.07-2.13-6.47-4.32-8.89-7.51l-.22-1.75c0-3,3-4.94,5.11-6.75l3.2-2A90.84,90.84,0,0,0,86.3,207.8c-.28,1.67-.6,3.34-1,5C84.64,215.08,83.87,217.55,81.5,218.42Zm38.36,11c-3,1.76-7.59,1.35-11.24,1-3.49-.75-7.25-1.5-10.53-3.43l-.87-1.52c-1.11-2.79.85-5.7,2.13-8.2.76-1,1.51-2.07,2.26-3.11a89.57,89.57,0,0,0,18.62,3.6q.57,2.49,1,5C121.48,225.08,121.72,227.66,119.86,229.38Zm39.36-4.55c-2.11,2.84-6.73,4.24-10.29,5.29-3.35.62-6.92,1.26-10.48.77l-1.39-1.08c-2.1-2.15-1.4-5.59-1.17-8.39.32-1.27.62-2.54.92-3.81a90,90,0,0,0,18.28-3.73q1.49,2.1,2.87,4.26C159.08,220.24,160.29,222.54,159.22,224.83Zm27.05-10.37c-2.83,1.83-5.85,3.76-9.29,4.66l-1.7-.47c-2.76-1.19-3.43-4.63-4.29-7.3-.2-1.31-.41-2.61-.62-3.91a90.68,90.68,0,0,0,15.27-10.31c1.46.91,2.91,1.87,4.32,2.86,1.85,1.51,3.83,3.17,3.73,5.69C192.83,209.09,189.14,212.13,186.27,214.46ZM214.5,186a2.75,2.75,0,0,1-.17.29,30.76,30.76,0,0,1-6.42,7.32l-1.75.22c-3,0-4.94-3-6.76-5.11-.68-1.13-1.37-2.25-2.06-3.36a90,90,0,0,0,10.5-15.87c1.66.28,3.31.6,4.95,1,2.27.69,4.75,1.46,5.62,3.83C219,178.05,216.3,182.67,214.5,186ZM230,148.67c0,.24-.06.48-.09.71a28.35,28.35,0,0,1-2.94,8.31l-1.53.88c-2.78,1.11-5.7-.86-8.19-2.14l-3.13-2.27A89.69,89.69,0,0,0,217.56,136q2.41-.55,4.86-1c2.37-.23,5-.46,6.67,1.39C231,139.62,230.34,144.91,230,148.67Zm.65-30.91-1.08,1.4c-2.15,2.09-5.59,1.39-8.39,1.16l-3.65-.88a89.45,89.45,0,0,0-3.74-18.38c1.36-1,2.72-1.89,4.13-2.79C220,97.14,222.26,96,224.56,97c2.8,2.09,4.2,6.64,5.25,10.18C230.44,110.57,231.1,114.17,230.6,117.76Z" fill="#fff"/></svg>