<svg id="9f279340-72de-4a1b-9183-dc5a41f901cc" data-name="Layer 1" xmlns="http://www.w3.org/2000/svg" xmlns:xlink="http://www.w3.org/1999/xlink" viewBox="0 0 3275 1456.36"><defs><linearGradient id="170a7a29-3938-459f-b1d6-947bd6f8e01c" x1="640" y1="1456.36" x2="640" gradientUnits="userSpaceOnUse"><stop offset="0" stop-color="#57aad3"/><stop offset="0.03" stop-color="#57aed0"/><stop offset="0.26" stop-color="#53c8bd"/><stop offset="0.5" stop-color="#50dbb0"/><stop offset="0.74" stop-color="#4fe6a8"/><stop offset="1" stop-color="#4eeaa5"/></linearGradient><linearGradient id="d2919b32-627f-428a-84cb-7ea9343aee2a" x1="640" y1="1216.83" x2="640" y2="239.53" xlink:href="#170a7a29-3938-459f-b1d6-947bd6f8e01c"/></defs><title>selimlab-logo</title><path d="M1280,1057.27V399.09a70,70,0,0,0-35-60.62L675,9.38a70,70,0,0,0-70,0L35,338.47A70,70,0,0,0,0,399.09v658.18a70,70,0,0,0,35,60.62L605,1447a70,70,0,0,0,70,0l570-329.09A70,70,0,0,0,1280,1057.27Z" fill="url(#170a7a29-3938-459f-b1d6-947bd6f8e01c)"/><path d="M1180,999.53V456.82a70,70,0,0,0-35-60.62L675,124.85a70,70,0,0,0-70,0L135,396.2a70,70,0,0,0-35,60.62V999.53a70,70,0,0,0,35,60.63l470,271.35a70,70,0,0,0,70,0l470-271.35A70,70,0,0,0,1180,999.53Z" fill="#fff"/><path d="M1045,555.76l-111,64,112.09,64.63c15.22,9.74,23.68,26.61,23.83,46.28,0,.76,0,1.51-.09,2.26V948.64c0,.25,0,.49,0,.74s0,.43,0,.64v.06h0c-.37,17-8.74,32.41-24.87,43.14L670.63,1209c-17,10.47-42.11,10-59.62.93C587.07,1196.59,309,1035.9,234.68,993c-16-10.28-24-24.81-24.56-46.28.52-21.9,11-36.27,27.81-46l107.94-62.23c-47.34-27.34-88.72-51.24-111.31-64.26-15.69-10.1-23.73-24.31-24.51-45.16h0v-1a.53.53,0,0,1,0-.13.41.41,0,0,1,0-.11v-218h.14c0-.22,0-.42,0-.63.52-21.9,11-36.27,27.81-45.95L614.29,246.4c16.07-8.89,37.08-9.55,52.09.37l379.73,218.89c15.22,9.74,23.68,26.6,23.83,46.26C1069.79,529.22,1061.39,544.88,1045,555.76Z" fill-rule="evenodd" fill="url(#d2919b32-627f-428a-84cb-7ea9343aee2a)"/><path d="M1069.91,830.49c-1,15.43-50.14,102.71-206.38,102.71-208.12,0-348-189-516.89-95.61l-1.28.74c-47.13-27.22-88.29-51-110.8-64-15.69-10.09-23.73-24.31-24.51-45.16h0v-1a.53.53,0,0,1,0-.13.45.45,0,0,1,0-.11V647.06l.17.07c0-10,47.94-136.4,220.34-138C616.11,507.49,720,739.28,877.8,651.93c14.24-8.22,34.3-19.21,56.39-31.95,45.94,26.5,87.92,50.54,112,64.41,15.22,9.74,23.68,26.61,23.83,46.29,0,.75,0,1.5-.09,2.25Z" fill-rule="evenodd" opacity="0.15"/><path d="M1811.49,626.51a19.53,19.53,0,0,1-5.36,6.41,11.91,11.91,0,0,1-7,2q-4.41,0-9.56-3.26t-12.29-7.25a101.24,101.24,0,0,0-16.7-7.24,70.24,70.24,0,0,0-22.58-3.26,67.42,67.42,0,0,0-20.59,2.83,43.42,43.42,0,0,0-14.81,7.88,31.5,31.5,0,0,0-8.93,12.08,39.66,39.66,0,0,0-2.94,15.44q0,10.71,6,17.86a49.89,49.89,0,0,0,15.86,12.18,146.87,146.87,0,0,0,22.48,9q12.6,4,25.83,8.51a242.6,242.6,0,0,1,25.84,10.5,89.42,89.42,0,0,1,22.48,15.13A68.56,68.56,0,0,1,1825,747.72q6,13.23,6,32.14a104.77,104.77,0,0,1-7,38.55,89,89,0,0,1-20.59,31.3,97,97,0,0,1-33.08,21q-19.54,7.66-44.75,7.67a144.33,144.33,0,0,1-28.57-2.83,150.4,150.4,0,0,1-27-8.09,143.91,143.91,0,0,1-24.26-12.61,117,117,0,0,1-20.17-16.38l16.6-27.1a17.84,17.84,0,0,1,5.46-4.94,13.76,13.76,0,0,1,7.14-2q5.25,0,11.34,4.31t14.5,9.55a114.11,114.11,0,0,0,19.64,9.56q11.23,4.3,27,4.31,24.16,0,37.4-11.45t13.23-32.88q0-12-6-19.53A48.35,48.35,0,0,0,1756,755.6a118.38,118.38,0,0,0-22.47-8.72q-12.61-3.57-25.63-7.77A218.67,218.67,0,0,1,1682.3,729a82.82,82.82,0,0,1-22.48-15.33A69.79,69.79,0,0,1,1644,690.06q-6-14.19-6-35a82.81,82.81,0,0,1,6.61-32.35,83.65,83.65,0,0,1,19.22-27.94,94.29,94.29,0,0,1,31.09-19.53q18.49-7.35,42.44-7.36,26.88,0,49.57,8.41a111.84,111.84,0,0,1,38.65,23.52Z" fill="#2e3031"/><path d="M1911.27,773.77q1.26,16.59,5.88,28.67a58.44,58.44,0,0,0,12.19,20,47.64,47.64,0,0,0,18,11.76,65,65,0,0,0,23,3.89,71.32,71.32,0,0,0,21.74-2.94,101.91,101.91,0,0,0,16-6.51q6.82-3.57,12-6.52a20.07,20.07,0,0,1,10-2.94q6.51,0,9.66,4.83l14.92,18.91a86.74,86.74,0,0,1-19.33,16.91,108.39,108.39,0,0,1-22.37,10.92,121.8,121.8,0,0,1-23.74,5.78,170.09,170.09,0,0,1-23.42,1.68,115.21,115.21,0,0,1-41.81-7.46,93.54,93.54,0,0,1-33.61-22.05q-14.28-14.6-22.47-36.13t-8.2-49.89a119.08,119.08,0,0,1,7.15-41.49,99.63,99.63,0,0,1,20.48-33.82,96.35,96.35,0,0,1,32.56-22.79q19.21-8.4,43.38-8.41a105.57,105.57,0,0,1,37.6,6.51,82.06,82.06,0,0,1,29.62,19,88.19,88.19,0,0,1,19.43,30.66q7,18.18,7,41.49,0,11.78-2.53,15.86t-9.66,4.1Zm98.94-31.3a62.45,62.45,0,0,0-2.83-19,45.37,45.37,0,0,0-8.51-15.65,39.58,39.58,0,0,0-14.39-10.61,49.39,49.39,0,0,0-20.27-3.89q-22.49,0-35.4,12.82t-16.49,36.34Z" fill="#2e3031"/><path d="M2148.22,562.86V875h-51.88V562.86Z" fill="#2e3031"/><path d="M2261,596.68a29.57,29.57,0,0,1-2.73,12.61,34.24,34.24,0,0,1-17.85,17.33,32.62,32.62,0,0,1-13,2.62,31.34,31.34,0,0,1-12.71-2.62,33.64,33.64,0,0,1-10.39-7,34,34,0,0,1-7-10.29,30.57,30.57,0,0,1-2.63-12.61,32.54,32.54,0,0,1,2.63-13,32.95,32.95,0,0,1,17.43-17.54,31.35,31.35,0,0,1,12.71-2.63,32.63,32.63,0,0,1,13,2.63,34.79,34.79,0,0,1,10.61,7,33.86,33.86,0,0,1,7.24,10.5A31.46,31.46,0,0,1,2261,596.68Zm-7.14,62.81V875h-52.09V659.49Z" fill="#2e3031"/><path d="M2306.82,875V659.49h31.72q10.08,0,13.23,9.46l3.36,16A122.73,122.73,0,0,1,2367,673.36a76.84,76.84,0,0,1,13.23-9,71.73,71.73,0,0,1,15.13-6,67.35,67.35,0,0,1,17.75-2.21q20.37,0,33.51,11t19.64,29.3a65.92,65.92,0,0,1,12.6-18.38,69,69,0,0,1,16.6-12.5,77,77,0,0,1,19.22-7.14,92.27,92.27,0,0,1,20.48-2.31q17.85,0,31.72,5.46a61.07,61.07,0,0,1,23.32,16,70.3,70.3,0,0,1,14.38,25.63q4.93,15.12,4.94,34.66V875h-51.89V737.85q0-20.6-9-31t-26.47-10.4a39.53,39.53,0,0,0-14.81,2.74,35.26,35.26,0,0,0-12,7.87,36.07,36.07,0,0,0-8.09,12.92,50.29,50.29,0,0,0-2.94,17.86V875h-52.09V737.85q0-21.63-8.72-31.51T2398,696.46a42,42,0,0,0-21.12,5.57,70.42,70.42,0,0,0-18.17,15.23V875Z" fill="#2e3031"/><path d="M2842.27,840.78V875H2671.49V574H2712V840.78Z" fill="#2e3031"/><path d="M2872.94,692.26q17.64-17,38-25.41t45.16-8.41q17.85,0,31.72,5.88a65.13,65.13,0,0,1,23.32,16.39,69.41,69.41,0,0,1,14.28,25.42,105.89,105.89,0,0,1,4.84,32.77V875h-16.6q-5.46,0-8.4-1.78t-4.62-7l-4.2-20.17a210.46,210.46,0,0,1-16.39,13.76,93.47,93.47,0,0,1-16.81,10.08,91.32,91.32,0,0,1-18.8,6.31,102.9,102.9,0,0,1-22.16,2.2,76.59,76.59,0,0,1-23.31-3.46,54,54,0,0,1-19-10.4A48.91,48.91,0,0,1,2867.16,847q-4.72-10.61-4.73-25.11a46.74,46.74,0,0,1,6.94-24.26q6.93-11.65,22.47-20.69t40.55-14.81q25-5.77,61.33-6.62V738.9q0-24.78-10.71-37.5t-31.3-12.71q-13.86,0-23.21,3.47a87.15,87.15,0,0,0-16.18,7.77q-6.83,4.3-11.76,7.77a17,17,0,0,1-9.77,3.47,10.67,10.67,0,0,1-6.51-2,18.28,18.28,0,0,1-4.62-4.93Zm120.78,87q-25.83.84-44,4.1t-29.62,8.5q-11.46,5.26-16.6,12.4a26.66,26.66,0,0,0-5.15,16,35.07,35.07,0,0,0,2.74,14.5,26.82,26.82,0,0,0,7.45,10,29.9,29.9,0,0,0,11.14,5.67,51,51,0,0,0,13.76,1.78,76.32,76.32,0,0,0,18.06-2,68.09,68.09,0,0,0,15.44-5.78,87.57,87.57,0,0,0,13.87-9,119.15,119.15,0,0,0,12.91-12Z" fill="#2e3031"/><path d="M3124.8,692.89a109.3,109.3,0,0,1,30.36-24.78q16.9-9.24,39-9.25a77.69,77.69,0,0,1,33.72,7.14,70,70,0,0,1,25.52,20.7q10.5,13.54,16.07,32.87t5.57,43.49q0,25.83-6.3,47.05t-18.17,36.24a82.49,82.49,0,0,1-28.89,23.31q-17,8.3-38.23,8.3-21,0-35.39-7.88a77.24,77.24,0,0,1-25.11-22.37L3121,867q-1.68,8-9.66,8H3087.2V565.59h37.6Zm0,130.87q10.29,13.88,22.58,19.54a63.68,63.68,0,0,0,27,5.67q30,0,46-21.21t16-63.23q0-39.07-14.18-57.46t-40.44-18.38q-18.27,0-31.82,8.4t-25.11,23.74Z" fill="#2e3031"/></svg>