<svg id="a4d657f4-6473-4acb-a279-6cd8fbff4772" data-name="Layer 1" xmlns="http://www.w3.org/2000/svg" xmlns:xlink="http://www.w3.org/1999/xlink" viewBox="0 0 1280 1920"><defs><linearGradient id="bce31797-415b-4090-b984-10a4dcc62e67" x1="640" y1="1456.22" x2="640" y2="-0.14" gradientUnits="userSpaceOnUse"><stop offset="0" stop-color="#57aad3"/><stop offset="0.03" stop-color="#57aed0"/><stop offset="0.26" stop-color="#53c8bd"/><stop offset="0.5" stop-color="#50dbb0"/><stop offset="0.74" stop-color="#4fe6a8"/><stop offset="1" stop-color="#4eeaa5"/></linearGradient><linearGradient id="c7ec4f3b-3dc0-47dd-8ecd-f9afa188b1e3" x1="640" y1="1216.69" x2="640" y2="239.39" xlink:href="#bce31797-415b-4090-b984-10a4dcc62e67"/></defs><title>selimlab-logo-vertical</title><path d="M1280,1057.13V399a70,70,0,0,0-35-60.62L675,9.24a70,70,0,0,0-70,0L35,338.33A70,70,0,0,0,0,399v658.18a70,70,0,0,0,35,60.62l570,329.09a70,70,0,0,0,70,0l570-329.09A70,70,0,0,0,1280,1057.13Z" transform="translate(0 0.14)" fill="url(#bce31797-415b-4090-b984-10a4dcc62e67)"/><path d="M1180,999.4V456.69a70,70,0,0,0-35-60.63L675,124.71a70,70,0,0,0-70,0L135,396.06a70,70,0,0,0-35,60.63V999.4A70,70,0,0,0,135,1060l470,271.35a70,70,0,0,0,70,0L1145,1060A70,70,0,0,0,1180,999.4Z" transform="translate(0 0.14)" fill="#fff"/><path d="M1045,555.62l-111,64,112.09,64.63c15.22,9.74,23.68,26.61,23.83,46.28,0,.76,0,1.51-.09,2.26V948.51c0,.24,0,.48,0,.73s0,.43,0,.64v.06h0c-.37,17-8.74,32.41-24.87,43.14L670.63,1208.9c-17,10.47-42.11,10-59.62.93-23.94-13.38-302-174.07-376.33-216.93-16-10.28-24-24.8-24.56-46.28.52-21.9,11-36.27,27.81-46l107.94-62.22c-47.34-27.35-88.72-51.24-111.31-64.27-15.69-10.09-23.73-24.31-24.51-45.16h0v-1a.53.53,0,0,1,0-.13.41.41,0,0,1,0-.11v-218h.14c0-.21,0-.42,0-.63.52-21.9,11-36.26,27.81-46L614.29,246.26c16.07-8.88,37.08-9.55,52.09.37l379.73,218.89c15.22,9.74,23.68,26.6,23.83,46.26C1069.79,529.08,1061.39,544.74,1045,555.62Z" transform="translate(0 0.14)" fill-rule="evenodd" fill="url(#c7ec4f3b-3dc0-47dd-8ecd-f9afa188b1e3)"/><path d="M1069.91,830.35c-1,15.43-50.14,102.71-206.38,102.71-208.12,0-348-189-516.89-95.61l-1.28.74c-47.13-27.22-88.29-51-110.8-64-15.69-10.1-23.73-24.31-24.51-45.16h0v-1a.62.62,0,0,1,0-.13.49.49,0,0,1,0-.12V646.92l.17.07c0-10,47.94-136.4,220.34-138C616.11,507.35,720,739.14,877.8,651.79c14.24-8.22,34.3-19.21,56.39-31.95,45.94,26.5,87.92,50.54,112,64.42,15.22,9.74,23.68,26.61,23.83,46.28,0,.75,0,1.5-.09,2.25Z" transform="translate(0 0.14)" fill-rule="evenodd" opacity="0.15"/><path d="M144.27,1724.4a15.09,15.09,0,0,1-4.16,5,9.26,9.26,0,0,1-5.46,1.54,14.08,14.08,0,0,1-7.41-2.52q-4-2.54-9.54-5.63a79.81,79.81,0,0,0-13-5.62,54.64,54.64,0,0,0-17.53-2.53,52.5,52.5,0,0,0-16,2.2,33.45,33.45,0,0,0-11.49,6.12,24.4,24.4,0,0,0-6.93,9.37,30.63,30.63,0,0,0-2.28,12q0,8.31,4.64,13.86a38.75,38.75,0,0,0,12.31,9.45,113.63,113.63,0,0,0,17.44,7q9.78,3.11,20,6.61a186.58,186.58,0,0,1,20,8.15,69.28,69.28,0,0,1,17.45,11.73,53.28,53.28,0,0,1,12.3,17.36q4.65,10.27,4.65,25a81.25,81.25,0,0,1-5.46,29.91,69,69,0,0,1-16,24.29,75.11,75.11,0,0,1-25.67,16.3q-15.16,6-34.72,5.95a111.73,111.73,0,0,1-22.17-2.2,116.42,116.42,0,0,1-21-6.28,111.07,111.07,0,0,1-18.83-9.78A90.51,90.51,0,0,1,0,1888.89l12.88-21a13.65,13.65,0,0,1,4.24-3.83,10.66,10.66,0,0,1,5.54-1.55q4.07,0,8.8,3.34t11.25,7.42A88.7,88.7,0,0,0,58,1880.66q8.71,3.33,21,3.34,18.75,0,29-8.89t10.27-25.51q0-9.28-4.65-15.16a37.51,37.51,0,0,0-12.31-9.86,92.28,92.28,0,0,0-17.44-6.77q-9.78-2.76-19.89-6A171.91,171.91,0,0,1,44,1804a64.63,64.63,0,0,1-17.44-11.9,54.21,54.21,0,0,1-12.31-18.34q-4.63-11-4.64-27.15a65.17,65.17,0,0,1,20.05-46.78,73,73,0,0,1,24.13-15.16q14.34-5.72,32.93-5.71a110.12,110.12,0,0,1,38.47,6.52,87,87,0,0,1,30,18.26Z" transform="translate(0 0.14)" fill="#2e3031"/><path d="M221.7,1838.68a79.15,79.15,0,0,0,4.57,22.25,45.58,45.58,0,0,0,9.45,15.49,37.08,37.08,0,0,0,13.94,9.13,50.65,50.65,0,0,0,17.85,3,55.34,55.34,0,0,0,16.87-2.28,78.57,78.57,0,0,0,12.39-5q5.3-2.77,9.29-5.06a15.65,15.65,0,0,1,7.75-2.28,8.34,8.34,0,0,1,7.5,3.75l11.57,14.67a66.9,66.9,0,0,1-15,13.12,83.73,83.73,0,0,1-17.36,8.48,94.81,94.81,0,0,1-18.42,4.48,131.88,131.88,0,0,1-18.18,1.31,89.31,89.31,0,0,1-32.44-5.79,72.41,72.41,0,0,1-26.08-17.12,80.25,80.25,0,0,1-17.44-28Q181.6,1852,181.6,1830a92.76,92.76,0,0,1,5.54-32.2A77.33,77.33,0,0,1,203,1771.6a74.79,74.79,0,0,1,25.26-17.69q14.92-6.53,33.67-6.52a82.07,82.07,0,0,1,29.18,5,63.53,63.53,0,0,1,23,14.76,68.3,68.3,0,0,1,15.08,23.8q5.46,14.1,5.46,32.19,0,9.13-1.95,12.31t-7.5,3.18Zm76.78-24.29a48.34,48.34,0,0,0-2.2-14.75,34.88,34.88,0,0,0-6.6-12.15,30.64,30.64,0,0,0-11.17-8.23,38.32,38.32,0,0,0-15.73-3q-17.44,0-27.47,10t-12.79,28.2Z" transform="translate(0 0.14)" fill="#2e3031"/><path d="M405.59,1675v242.24H365.32V1675Z" transform="translate(0 0.14)" fill="#2e3031"/><path d="M493.12,1701.26A23,23,0,0,1,491,1711a26.65,26.65,0,0,1-13.85,13.45,25.26,25.26,0,0,1-10.11,2,24.21,24.21,0,0,1-9.86-2,26,26,0,0,1-8.07-5.47,26.26,26.26,0,0,1-5.46-8,23.71,23.71,0,0,1-2-9.78,25.23,25.23,0,0,1,2-10.11,25.75,25.75,0,0,1,5.46-8.15,26.13,26.13,0,0,1,8.07-5.46,24.22,24.22,0,0,1,9.86-2,25.27,25.27,0,0,1,10.11,2,27,27,0,0,1,8.23,5.46,26.17,26.17,0,0,1,5.62,8.15A24.46,24.46,0,0,1,493.12,1701.26ZM487.58,1750v167.25H447.15V1750Z" transform="translate(0 0.14)" fill="#2e3031"/><path d="M528.66,1917.25V1750h24.61q7.83,0,10.28,7.33l2.6,12.39a95.72,95.72,0,0,1,9.21-9,58.84,58.84,0,0,1,10.27-7,55.47,55.47,0,0,1,11.74-4.65,52.32,52.32,0,0,1,13.78-1.71q15.81,0,26,8.56t15.24,22.74a51.24,51.24,0,0,1,9.78-14.27,53.63,53.63,0,0,1,12.88-9.69,59.29,59.29,0,0,1,14.92-5.55,71.89,71.89,0,0,1,15.89-1.79,66.73,66.73,0,0,1,24.62,4.24A47.2,47.2,0,0,1,748.57,1764a54.64,54.64,0,0,1,11.17,19.89,86.71,86.71,0,0,1,3.83,26.89v106.45H723.3V1810.8q0-16-7-24t-20.54-8.07a30.7,30.7,0,0,0-11.49,2.12,27.36,27.36,0,0,0-9.29,6.11,27.89,27.89,0,0,0-6.28,10,39,39,0,0,0-2.28,13.85v106.45H626V1810.8q0-16.79-6.76-24.45t-19.81-7.66A32.51,32.51,0,0,0,583,1783a54.6,54.6,0,0,0-14.11,11.82v122.42Z" transform="translate(0 0.14)" fill="#2e3031"/><path d="M944.19,1890.68v26.57H811.66v-233.6h31.46v207Z" transform="translate(0 0.14)" fill="#2e3031"/><path d="M968,1775.43a94.43,94.43,0,0,1,29.5-19.73,91.25,91.25,0,0,1,35-6.52,62.63,62.63,0,0,1,24.62,4.57,50.48,50.48,0,0,1,18.09,12.71,53.91,53.91,0,0,1,11.09,19.73,82.14,82.14,0,0,1,3.75,25.43v105.63h-12.88a12.68,12.68,0,0,1-6.52-1.38c-1.53-.92-2.72-2.75-3.59-5.46l-3.26-15.65a162.55,162.55,0,0,1-12.71,10.67,72.92,72.92,0,0,1-13.05,7.83,70.68,70.68,0,0,1-14.59,4.89,79.83,79.83,0,0,1-17.19,1.71,59.27,59.27,0,0,1-18.1-2.69,41.66,41.66,0,0,1-14.75-8.07,37.88,37.88,0,0,1-10-13.61,47.66,47.66,0,0,1-3.66-19.48,36.3,36.3,0,0,1,5.38-18.83q5.37-9,17.44-16.06t31.46-11.49q19.39-4.49,47.6-5.13v-12.88q0-19.23-8.31-29.1t-24.29-9.86q-10.75,0-18,2.69a67.33,67.33,0,0,0-12.55,6q-5.29,3.34-9.13,6a13.18,13.18,0,0,1-7.58,2.69,8.28,8.28,0,0,1-5.05-1.55,14.28,14.28,0,0,1-3.59-3.83Zm93.73,67.49a240.26,240.26,0,0,0-34.15,3.18q-14.1,2.52-23,6.6t-12.87,9.62a20.63,20.63,0,0,0-4,12.39,27.36,27.36,0,0,0,2.12,11.24,20.78,20.78,0,0,0,5.79,7.75,23.11,23.11,0,0,0,8.64,4.4,39.74,39.74,0,0,0,10.68,1.38,59.3,59.3,0,0,0,14-1.54,53.06,53.06,0,0,0,12-4.49,67.2,67.2,0,0,0,10.76-7,92.49,92.49,0,0,0,10-9.29Z" transform="translate(0 0.14)" fill="#2e3031"/><path d="M1163.44,1775.92a85,85,0,0,1,23.56-19.24q13.13-7.17,30.24-7.17a60.23,60.23,0,0,1,26.16,5.54,54.43,54.43,0,0,1,19.81,16.06,75.12,75.12,0,0,1,12.47,25.51,121.91,121.91,0,0,1,4.32,33.75,127.93,127.93,0,0,1-4.89,36.51A82.83,82.83,0,0,1,1261,1895a64,64,0,0,1-22.42,18.1,66.82,66.82,0,0,1-29.67,6.44q-16.29,0-27.46-6.12a59.92,59.92,0,0,1-19.48-17.36l-1.47,15q-1.3,6.2-7.5,6.19h-18.75V1677.13h29.18Zm0,101.56q8,10.76,17.53,15.16a49.41,49.41,0,0,0,20.94,4.4q23.31,0,35.71-16.47t12.38-49.06q0-30.33-11-44.59t-31.38-14.26q-14.17,0-24.7,6.52a72.86,72.86,0,0,0-19.48,18.42Z" transform="translate(0 0.14)" fill="#2e3031"/></svg>