<?xml version="1.0" encoding="utf-8"?>
<!-- Generator: Adobe Illustrator 19.0.0, SVG Export Plug-In . SVG Version: 6.00 Build 0)  -->
<svg version="1.1" xmlns="http://www.w3.org/2000/svg" xmlns:xlink="http://www.w3.org/1999/xlink" x="0px" y="0px"
	 viewBox="0 0 1232 600" style="enable-background:new 0 0 1232 600;" xml:space="preserve">
<style type="text/css">
	.st0{display:none;opacity:0.42;}
	.st1{display:inline;}
	.st2{fill:none;stroke:#808080;stroke-width:5;stroke-miterlimit:10;}
	.st3{fill:#DBDBDB;}
	.st4{fill:#C1C1C1;}
	.st5{fill:#FFFFFF;}
	.st6{fill:#666666;}
	.st7{fill:#878787;}
	.st8{clip-path:url(#XMLID_90_);fill:#666666;}
	.st9{clip-path:url(#XMLID_91_);fill:#666666;}
	.st10{fill-rule:evenodd;clip-rule:evenodd;fill:none;}
	.st11{fill-rule:evenodd;clip-rule:evenodd;fill:#C1C1C1;}
	.st12{fill-rule:evenodd;clip-rule:evenodd;fill:#AAAAAA;}
	.st13{fill-rule:evenodd;clip-rule:evenodd;fill:#DBDBDB;}
	.st14{fill-rule:evenodd;clip-rule:evenodd;fill:#878787;}
	.st15{fill-rule:evenodd;clip-rule:evenodd;fill:#666666;}
	.st16{fill-rule:evenodd;clip-rule:evenodd;fill:#F5F5F5;}
	.st17{display:none;}
	.st18{display:inline;clip-path:url(#XMLID_92_);}
	.st19{fill:none;stroke:#E6E6E6;stroke-width:2;stroke-miterlimit:10;}
	
		.st20{clip-path:url(#XMLID_93_);fill-rule:evenodd;clip-rule:evenodd;fill:#FFFFFF;stroke:#E6E6E6;stroke-width:3;stroke-miterlimit:10;}
	.st21{fill:#AFAFAF;}
</style>
<g id="Layer_1" class="st0">
	<g id="MvnC9c.tif" class="st1">
		
			<image style="overflow:visible;" width="800" height="800" id="Layer_0_1_" xlink:href="34CEE7EB98ABAEBC.png"  transform="matrix(0.4475 0 0 0.4475 961.5654 125)">
		</image>
	</g>
</g>
<g id="Layer_2">
	<path id="wire" class="st2" d="M933.3,581.2c-8.1-14.7-27.3-14.9-33.7-4.6s-7.9,19.9-27.3,19.9c-14.3,0-14.2,0-238.6,0
		c0,0-22.6-4.2-22.6-20.8s0-78.7,0-78.7"/>
	<g id="microscope">
		<path id="XMLID_8_" class="st3" d="M1194.5,265.8c-22.9-18.5-37.8-0.9-38.7,2.6c-0.9,3.5-30.8,80.9-30.8,80.9l30.8,11.7
			c3.5-8.8,0.3-2.4,5.3-14.5c6.7-16.3,33.4-11.3,36,7.2c7.9,55.4-19.3,101.1-36.9,119.6c-16.8,12.3-30.6-0.6-27.9-9.2
			c-12.1-4.7-132.1-50.7-132.1-50.7c-4.2,8.4-0.8,10.9,3.4,13.5c4.2,2.5,52.3,20.8,58.1,23.5c15.8,7.2,27.6,30.7,21.7,48.4
			c-0.2,0.5-7.5,28.9-9.3,33.5c-3.5,8.8,2.2,13.8,11.4,13.2c70.3-7,125.7-71.2,141.6-127.5C1242.9,361.6,1217.4,284.2,1194.5,265.8z
			"/>
		<path id="XMLID_3_" class="st4" d="M1130.3,491c-7.6-9.5-9.7-17.4-19.6-17.4c-9.8,0-18.2,7.6-18.2,17.4c0,0,0,32.4,0,46
			s-13,31.8-33,31.8V589h123v-15.3L1130.3,491z"/>
		<path id="XMLID_2_" class="st3" d="M976.8,570c-31.9,0-59.2,15.6-59.2,23.5v6.5h289v-20.5c0,0-1.5-9.5-8.8-9.5
			S976.8,570,976.8,570z"/>
		<circle id="XMLID_1_" class="st5" cx="1111.2" cy="498" r="10.8"/>
		<path id="XMLID_5_" class="st6" d="M1132.5,465.8l-142.9-54.7c-2.2-0.8-3.2-3.2-2.4-5.4l3.3-8.7c0.8-2.2,3.2-3.2,5.4-2.4
			l142.9,54.7c2.2,0.8,3.2,3.2,2.4,5.4l-3.3,8.7C1137.1,465.6,1134.7,466.7,1132.5,465.8z"/>
		<polygon id="XMLID_4_" class="st3" points="1066.7,326.6 1115,202.3 1165.9,222.1 1117.5,346.4 		"/>
		<circle id="XMLID_6_" class="st6" cx="1169.1" cy="287.3" r="34"/>
		<circle id="XMLID_7_" class="st7" cx="1169.1" cy="287.3" r="11.7"/>
		<path id="XMLID_10_" class="st6" d="M1047.4,283.1l70.1,63.3l-3.2,8.7c-2.4,6.4-9.3,9.8-15.8,7.7c-11.5-3.7-28.9-10.4-39.9-20.1
			c-10.9-9.6-18.1-26.3-22-37.7c-2.4-6.8,0.1-14.4,6-18.6L1047.4,283.1z"/>
		<path id="XMLID_15_" class="st6" d="M1201.8,125.3l-41.8-17.2l-33.4,81.1c-2,4.9-7.7,7.3-12.6,5.3h0l-3.1,7.6l58.2,24l3.1-7.6l0,0
			c-4.1-1.7-6.1-6.4-4.4-10.5L1201.8,125.3z"/>
		<path id="XMLID_13_" class="st3" d="M1072.6,351.6l-11,28.9c-0.7,1.9-0.9,4.1-0.5,6.1l0.5,2.6c0.5,2.7,2.4,5,4.9,6.1l9.6,4.2
			c2,0.9,5.1,2,7.2,1.5l3.7-1c2.2-0.6,4.6-3.8,5.5-5.8l13.9-31.5c0,0-5.7-6.4-15.2-10.3C1081.7,348.5,1072.6,351.6,1072.6,351.6z"/>
		<g id="XMLID_16_">
			<defs>
				<path id="XMLID_14_" d="M1072.6,351.6l-11,28.9c-0.7,1.9-0.9,4.1-0.5,6.1l0.5,2.6c0.5,2.7,2.4,5,4.9,6.1l9.6,4.2
					c2,0.9,5.1,2,7.2,1.5l3.7-1c2.2-0.6,4.6-3.8,5.5-5.8l13.9-31.5c0,0-5.7-6.4-15.2-10.3C1081.7,348.5,1072.6,351.6,1072.6,351.6z"
					/>
			</defs>
			<clipPath id="XMLID_90_">
				<use xlink:href="#XMLID_14_"  style="overflow:visible;"/>
			</clipPath>
			
				<rect id="XMLID_12_" x="1059.1" y="373.1" transform="matrix(0.936 0.3519 -0.3519 0.936 202.7554 -356.1149)" class="st8" width="43.8" height="13.2"/>
		</g>
		<path id="XMLID_19_" class="st3" d="M1039.7,312.1l-25.7,17.3c-1.7,1.2-3.1,2.8-3.9,4.7l-1.1,2.4c-1.1,2.5-0.9,5.4,0.5,7.8l5.4,9
			c1.2,1.9,3,4.6,5.1,5.4l3.6,1.3c2.1,0.8,5.9-0.4,7.8-1.6l29.5-17.7c0,0-0.9-8.5-6.5-17.1C1048.9,314.9,1039.7,312.1,1039.7,312.1z
			"/>
		<g id="XMLID_9_">
			<defs>
				<path id="XMLID_17_" d="M1039.7,312.1l-25.7,17.3c-1.7,1.2-3.1,2.8-3.9,4.7l-1.1,2.4c-1.1,2.5-0.9,5.4,0.5,7.8l5.4,9
					c1.2,1.9,3,4.6,5.1,5.4l3.6,1.3c2.1,0.8,5.9-0.4,7.8-1.6l29.5-17.7c0,0-0.9-8.5-6.5-17.1
					C1048.9,314.9,1039.7,312.1,1039.7,312.1z"/>
			</defs>
			<clipPath id="XMLID_91_">
				<use xlink:href="#XMLID_17_"  style="overflow:visible;"/>
			</clipPath>
			
				<rect id="XMLID_18_" x="1008.4" y="333.3" transform="matrix(0.5608 0.8279 -0.8279 0.5608 733.8946 -703.7427)" class="st9" width="43.8" height="13.1"/>
		</g>
	</g>
	<g id="macbook">
		<path id="XMLID_87_" class="st10" d="M371.9,10.8c1.9,0,3.5,1.6,3.5,3.5s-1.6,3.5-3.5,3.5c-1.9,0-3.5-1.6-3.5-3.5
			S369.9,10.8,371.9,10.8z"/>
		<path id="XMLID_75_" class="st11" d="M248.6,594.7v-7l26.7-3.5l21.9-76h72.5h2.1h72.5l21.9,76l26.7,3.5v7H248.6z"/>
		<path id="XMLID_79_" class="st12" d="M294.2,517.8l4.6-16.4h144.1l4.6,16.4H294.2z"/>
		<path id="XMLID_83_" class="st13" d="M726.3,508.9H16.8c-9.1,0-16.8-6.7-16.8-15.8v-51.4h741.7v51.4
			C741.7,502.2,735.4,508.9,726.3,508.9z"/>
		<path id="XMLID_77_" class="st13" d="M237.7,600l4.7-16.4h256.7l4.7,16.4H237.7z"/>
		<path id="XMLID_85_" class="st14" d="M370.9,457.9c8.1,0,14.7,6.6,14.7,14.7s-6.6,14.7-14.7,14.7c-8.1,0-14.7-6.6-14.7-14.7
			S362.8,457.9,370.9,457.9z"/>
		<path id="XMLID_81_" class="st15" d="M0,441.8V16.4C0,7.4,7.4,0,16.4,0h708.8c9.1,0,16.4,7.4,16.4,16.4v425.3H0z"/>
		<rect id="XMLID_36_" x="29.2" y="32.7" class="st16" width="683.3" height="376.3"/>
		<g id="XMLID_40_" class="st17">
			<defs>
				<rect id="XMLID_20_" x="29.2" y="32.7" width="683.3" height="376.3"/>
			</defs>
			<clipPath id="XMLID_92_" class="st1">
				<use xlink:href="#XMLID_20_"  style="overflow:visible;"/>
			</clipPath>
			<g id="hlines" class="st18">
				<line id="XMLID_35_" class="st19" x1="22.6" y1="380" x2="727.6" y2="380"/>
				<line id="XMLID_37_" class="st19" x1="22.6" y1="351" x2="727.6" y2="351"/>
				<line id="XMLID_39_" class="st19" x1="22.6" y1="322" x2="727.6" y2="322"/>
				<path id="XMLID_38_" class="st19" d="M23.3,279.4"/>
				<line id="XMLID_41_" class="st19" x1="22.6" y1="293" x2="727.6" y2="293"/>
				<line id="XMLID_55_" class="st19" x1="22.6" y1="88" x2="727.6" y2="88"/>
				<line id="XMLID_43_" class="st19" x1="22.6" y1="263" x2="727.6" y2="263"/>
				<line id="XMLID_54_" class="st19" x1="22.6" y1="117" x2="727.6" y2="117"/>
				<line id="XMLID_45_" class="st19" x1="22.6" y1="234" x2="727.6" y2="234"/>
				<line id="XMLID_56_" class="st19" x1="22.6" y1="59" x2="727.6" y2="59"/>
				<line id="XMLID_44_" class="st19" x1="22.6" y1="205" x2="727.6" y2="205"/>
				<line id="XMLID_52_" class="st19" x1="22.6" y1="176" x2="727.6" y2="176"/>
				<line id="XMLID_53_" class="st19" x1="22.6" y1="146" x2="727.6" y2="146"/>
			</g>
		</g>
		<g id="XMLID_34_">
			<defs>
				<rect id="XMLID_33_" x="29.2" y="32.7" width="683.3" height="376.3"/>
			</defs>
			<clipPath id="XMLID_93_">
				<use xlink:href="#XMLID_33_"  style="overflow:visible;"/>
			</clipPath>
			<ellipse id="XMLID_22_" class="st20" cx="370.9" cy="220.9" rx="287.8" ry="287.8"/>
		</g>
		<g id="XMLID_23_">
			<path id="XMLID_24_" class="st21" d="M153.5,243.8l82.5-110.9h39.7v109H294v21.5c0,1.9-0.6,3.6-1.9,4.9c-1.3,1.4-3.1,2-5.4,2
				h-11.1v40.9h-36.5v-40.9h-71.7c-2.4,0-4.5-0.7-6.5-2.2c-1.9-1.5-3.1-3.3-3.6-5.6L153.5,243.8z M193.3,241.9h45.9v-46.5
				c0-2.9,0.1-5.9,0.3-9.2c0.2-3.3,0.5-6.7,1-10.3L193.3,241.9z"/>
			<path id="XMLID_27_" class="st21" d="M299.5,222.1c0-15.6,1.7-29.1,5-40.6c3.3-11.4,7.9-20.9,13.7-28.4
				c5.9-7.5,12.8-13,20.9-16.7c8-3.6,16.8-5.4,26.3-5.4c9.5,0,18.3,1.8,26.4,5.4c8.1,3.6,15.1,9.2,21,16.7
				c5.9,7.5,10.6,17,13.9,28.4c3.3,11.4,5,25,5,40.6c0,15.6-1.7,29.1-5,40.5c-3.3,11.4-8,20.8-13.9,28.3c-5.9,7.5-13,13.1-21,16.7
				c-8.1,3.7-16.9,5.5-26.4,5.5c-9.5,0-18.2-1.8-26.3-5.5c-8-3.7-15-9.2-20.9-16.7c-5.9-7.5-10.4-17-13.7-28.4
				C301.2,251.1,299.5,237.6,299.5,222.1z M338.7,222.1c0,12.3,0.8,22.4,2.3,30.1c1.5,7.7,3.5,13.9,6,18.3c2.5,4.5,5.3,7.5,8.5,9.2
				c3.2,1.7,6.5,2.5,9.9,2.5c3.3,0,6.7-0.8,9.9-2.5c3.3-1.7,6.2-4.7,8.7-9.2c2.5-4.5,4.6-10.6,6.2-18.3c1.6-7.7,2.3-17.8,2.3-30.1
				c0-12.3-0.8-22.3-2.3-30.1c-1.6-7.8-3.6-14-6.2-18.4c-2.6-4.4-5.5-7.5-8.7-9.1c-3.3-1.7-6.6-2.5-9.9-2.5c-3.3,0-6.6,0.8-9.9,2.5
				c-3.2,1.7-6.1,4.7-8.5,9.1c-2.5,4.4-4.5,10.6-6,18.4C339.5,199.8,338.7,209.8,338.7,222.1z"/>
			<path id="XMLID_30_" class="st21" d="M437.2,243.8l82.5-110.9h39.7v109h18.4v21.5c0,1.9-0.6,3.6-1.9,4.9c-1.3,1.4-3.1,2-5.4,2
				h-11.1v40.9h-36.5v-40.9h-71.7c-2.4,0-4.5-0.7-6.5-2.2c-1.9-1.5-3.1-3.3-3.6-5.6L437.2,243.8z M477,241.9h45.9v-46.5
				c0-2.9,0.1-5.9,0.3-9.2c0.2-3.3,0.5-6.7,1-10.3L477,241.9z"/>
		</g>
	</g>
</g>
</svg>
