<?xml version="1.0" encoding="utf-8"?>
<!-- Generator: Adobe Illustrator 19.0.0, SVG Export Plug-In . SVG Version: 6.00 Build 0)  -->
<svg version="1.1" id="Layer_1" xmlns="http://www.w3.org/2000/svg" xmlns:xlink="http://www.w3.org/1999/xlink" x="0px" y="0px"
	 viewBox="0 0 1024 1024" style="enable-background:new 0 0 1024 1024;" xml:space="preserve">
<style type="text/css">
	.st0{fill:#FFFFFF;}
	.st1{fill:#34D6FF;}
	.st2{fill-rule:evenodd;clip-rule:evenodd;fill:#00B7E6;}
</style>
<path id="bg" class="st0" d="M357,0h310c102.8,0,154.2,0,209.5,17.5c60.4,22,108,69.6,130,130C1024,202.8,1024,254.2,1024,357v310
	c0,102.8,0,154.2-17.5,209.5c-22,60.4-69.6,108-130,130C821.2,1024,769.8,1024,667,1024H357c-102.8,0-154.2,0-209.5-17.5
	c-60.4-22-108-69.6-130-130C0,821.2,0,769.8,0,667V357c0-102.8,0-154.2,17.5-209.5c22-60.4,69.6-108,130-130C202.8,0,254.2,0,357,0
	L357,0"/>
<g id="wave">
	<g id="XMLID_20_">
		<path id="XMLID_21_" class="st1" d="M1006.5,876.5c13.1-41.6,16.4-80.9,17.2-141.5C716.9,734.7,670.3,200,512,200
			C352.3,200,346,512,0,512v155c0,102.8,0,154.2,17.5,209.5c22,60.4,69.6,108,130,130C202.8,1024,254.2,1024,357,1024
			c103.4,0,211.4,0,310,0c102.8,0,154.2,0,209.5-17.5C936.9,984.5,984.5,936.9,1006.5,876.5z"/>
	</g>
</g>
<g>
	<g id="XMLID_22_">
		<path id="XMLID_23_" class="st2" d="M512,200c-89.9,0-131.3,99-212,185.5V1024h424V489.7C648,348.9,595.6,200,512,200z"/>
	</g>
</g>
</svg>
