<?xml version="1.0" encoding="utf-8"?>
<!-- Generator: Adobe Illustrator 19.0.0, SVG Export Plug-In . SVG Version: 6.00 Build 0)  -->
<svg version="1.1" id="Layer_1" xmlns="http://www.w3.org/2000/svg" xmlns:xlink="http://www.w3.org/1999/xlink" x="0px" y="0px"
	 viewBox="0 0 1024 1024" style="enable-background:new 0 0 1024 1024;" xml:space="preserve">
<style type="text/css">
	.st0{fill:#FFFFFF;}
	.st1{fill-rule:evenodd;clip-rule:evenodd;fill:#00B7E6;}
	.st2{fill-rule:evenodd;clip-rule:evenodd;fill:#0CC5F3;}
	.st3{fill-rule:evenodd;clip-rule:evenodd;fill:#34D6FF;}
</style>
<path id="bg" class="st0" d="M357,0h310c102.8,0,154.2,0,209.5,17.5c60.4,22,108,69.6,130,130C1024,202.8,1024,254.2,1024,357v310
	c0,102.8,0,154.2-17.5,209.5c-22,60.4-69.6,108-130,130C821.2,1024,769.8,1024,667,1024H357c-102.8,0-154.2,0-209.5-17.5
	c-60.4-22-108-69.6-130-130C0,821.2,0,769.8,0,667V357c0-102.8,0-154.2,17.5-209.5c22-60.4,69.6-108,130-130C202.8,0,254.2,0,357,0
	L357,0"/>
<path class="st1" d="M1024,540c0,0-39.6,0-83.2,0c-64,0-124.8,27.5-104.8,97c22.2,77.4,32.6,143.4-7,183
	c-29.4,29.4-100.3,28.5-153,25c-68.3-4.6-90,16.2-90,96c0,42.7,0,83,0,83H436c0,0,0-79.8,0-153.6c0-52.5-26.1-142.5-84.2-198.2
	c-45.4-43.4-75.1-87.2-169.1-87.2C102.9,585,0,585,0,585V435c0,0,46.4,0,92.3,0c62.3,0,88.2-22.6,77.7-67
	c-15.4-65.1-9.8-145.2,25-180c33.6-33.6,117.7-35.7,180-23c64.6,13.2,86-10.4,86-72.2c0-47,0-92.8,0-92.8h100c0,0,0,53.3,0,111.2
	c0,79.1,40.9,170.3,111.2,240.6C727.8,407.4,807.3,480,883.3,480c68.2,0,140.7,0,140.7,0V540z"/>
<path class="st2" d="M274,274c63-63,220.6-7.5,352,123.9C757.4,529.4,812.9,687,750,750S529.4,757.4,398,626
	C266.6,494.6,211.1,337,274,274z"/>
<path class="st3" d="M374.4,374.4C410.8,338,502,370,578,446S686,613.2,649.6,649.6C613.2,686,522,654,446,578
	S338,410.8,374.4,374.4z"/>
</svg>
