<?xml version="1.0" encoding="utf-8"?>
<!-- Generator: Adobe Illustrator 19.0.0, SVG Export Plug-In . SVG Version: 6.00 Build 0)  -->
<svg version="1.1" id="Layer_1" xmlns="http://www.w3.org/2000/svg" xmlns:xlink="http://www.w3.org/1999/xlink" x="0px" y="0px"
	 viewBox="0 0 514.1 221" style="enable-background:new 0 0 514.1 221;" xml:space="preserve">
<style type="text/css">
	.st0{fill-rule:evenodd;clip-rule:evenodd;fill:#F48226;}
	.st1{fill:#FFFFFF;}
</style>
<path class="st0" d="M0,0h514.1v221H0V0z"/>
<path class="st1" d="M96.6,98.8l16.2-0.2c8.6,0,14.2-3.3,14.2-12.1c0-6.5-5.6-11.1-13-11.1H96.6V98.8 M115.2,145.7
	c8,0,13.8-4.8,13.8-11.9c0-6.4-4.5-12.4-11.6-12.9H96.6v24.8H115.2z M64.7,167.9V53.1h55c21.6,0.2,39.8,9.9,39.8,30.1
	c0,14.2-11.9,22.7-24.8,25.1v0.3c15.3,2.1,27.7,11.8,27.7,28.1c0,33.4-42.6,31.2-43.7,31.2H64.7z"/>
<path class="st1" d="M247.7,125h-23.4v-22.3h55.2v61.4c-25.8,3.8-30.7,6.2-58.4,6.2c-35.8-1.1-57.6-23.9-57.6-59.8
	c0-35.9,21.8-58.7,57.6-59.8c27.8-0.8,57.1,3.3,57.6,36.7h-31.8C245.3,76.3,236.5,73,226,73c-21.5,0-29.1,18.9-29.1,37.5
	c0,22.6,11.3,37.5,34.2,37.5c5.9,0,11.8-1,16.5-1.9V125"/>
<path class="st1" d="M321.9,170.3c-18.3,0-33.7-13.4-34.2-32.3h11.1c0.3,17.7,13.4,22.7,28.8,22.7c12.9,0,27.7-7.5,27.7-22.1
	c0-11.4-8.3-16.9-18-20c-18.6-6.2-46.9-12.1-46.9-36.9c0-20,18.4-31,36.6-31c15.1,0,34.8,5.2,37.4,27.4h-11.1
	c-0.3-14.2-13.2-17.8-25-17.8c-11.9,0-26.7,6-26.7,20c0,32.6,64.9,17.8,64.9,57.4C366.5,162.7,345,170.3,321.9,170.3"/>
<path class="st1" d="M388.8,53.1v74.3c0.8,20.8,12.7,33.4,31.6,33.4c18.9,0,30.9-12.6,31.6-33.4V53.1h10.3v74.4
	c-0.3,24.7-14.2,42.8-42,42.8c-27.8,0-41.7-18.1-42-42.8V53.1H388.8"/>
</svg>
