<svg xmlns="http://www.w3.org/2000/svg" style="display: none;">
  
    <symbol id="icon-mail" viewBox="0 0 512 512">
      <path d="m40 98l185 146c8 7 20 10 31 9 11 1 23-2 31-9l184-146c15-12 12-21-7-21l-416 0c-19 0-22 9-8 21z m445 39l-202 153c-7 5-17 8-27 8-10 0-20-3-27-8l-202-153c-15-12-27-6-27 13l0 251c0 19 15 34 34 34l444 0c19 0 34-15 34-34l0-251c0-19-12-25-27-13z"/>
    </symbol>
  
    <symbol id="icon-menu" viewBox="0 0 512 512">
      <path d="m486 230l-460 0c-15 0-26 12-26 26 0 14 11 26 26 26l460 0c14 0 26-12 26-26 0-14-12-26-26-26z m-460-102l460 0c14 0 26-11 26-26 0-14-12-25-26-25l-460 0c-15 0-26 11-26 25 0 15 11 26 26 26z m460 256l-460 0c-15 0-26 12-26 26 0 14 11 25 26 25l460 0c14 0 26-11 26-25 0-14-12-26-26-26z"/>
    </symbol>
  
    <symbol id="icon-phone" viewBox="0 0 512 512">
      <path d="m196 316c46 46 99 90 120 68 30-30 49-56 115-3 66 53 15 89-13 118-34 33-159 2-283-121-124-123-156-248-123-281 29-30 65-80 118-15 53 66 27 85-3 115-21 21 23 74 69 119z m67-217c0 0-14-2-24 7-10 10-10 28 0 38 7 6 15 8 15 8 18 3 43 8 71 36 27 27 33 53 36 70 0 0 1 9 7 15 11 11 28 10 38 0 10-10 8-23 8-23-6-35-23-71-52-100-28-29-64-46-99-51z m130 21c50 50 71 107 65 153 0 0-3 15 7 24 10 11 27 10 38 0 6-6 7-17 7-17 6-40-1-120-79-198-79-78-159-86-199-80 0 0-10 1-17 8-10 10-11 27 0 38 10 9 24 7 24 7 47-7 104 14 154 65z"/>
    </symbol>
  
    <symbol id="icon-airforce-logo" viewBox="0 0 512 512">
      <path d="m236 328c-4-4-8-6-12-9-60-43-120-87-179-130-3-1-4-3-5-6-13-27-26-53-39-80 0-1 0-1-1-3 8 6 16 12 23 17 75 54 150 109 225 163 2 1 2 2 2 4-5 14-9 28-14 42 0 0 0 1 0 2z m41 0c-3-8-5-15-7-22-3-7-5-14-7-21-1-2-1-3 1-5 34-24 68-49 102-74 42-30 84-61 126-91 7-5 13-9 20-14-1 2-2 4-2 6-13 26-25 52-38 78-1 1-2 2-3 3-49 36-99 72-148 108-14 10-28 20-42 30 0 0-1 1-2 2z m182-117c-3 7-7 15-10 22-10 20-19 40-29 60-1 2-3 4-4 5-18 13-36 26-54 39-2 1-4 2-5 2-24 0-49 0-73 0 0 0 0 0-2-1 59-42 118-85 177-128 0 0 0 1 0 1z m-407-1c60 43 119 86 179 129-2 0-3 0-3 0-24 0-48 0-71 0-2 0-4-1-6-2-18-13-37-27-55-40-2-1-2-2-3-3-13-28-27-56-41-84z m-17-182c20 42 40 84 60 126 0 0 0 0 0 0-7-5-14-10-21-15-22-16-44-32-66-49-2-1-2-2-2-3 10-19 19-39 28-58 0 0 0 0 1-1z m443 0c10 21 19 41 29 61-30 22-60 43-89 65 0 0-1 0-1 0 20-42 40-84 61-126z m-270 422c6-5 11-9 16-13 10-7 20-14 30-21 1-1 2-2 4-1 15 11 30 22 45 33 1 0 1 1 1 1-2 2-3 3-5 5-14 9-27 19-41 29-2 1-3 1-4 0-15-11-30-22-45-33 0 1-1 0-1 0z m-69-50c9-7 17-13 26-19 7-5 13-10 21-15 1-1 2-1 4 0 8 6 16 12 25 18 1 1 1 2 1 3-6 19-12 37-18 56-20-15-39-29-59-43z m235 0c-20 14-40 28-60 43-2-6-3-11-5-16-4-13-8-26-12-38-1-3-1-4 1-5 9-6 17-12 25-18 1-1 2-1 3 0 16 11 31 22 46 33 0 0 1 0 2 1z m-91-27c1 14-12 27-28 27-14-1-25-13-26-27 0-14 10-27 27-27 18 0 28 14 27 27z"/>
    </symbol>
  
    <symbol id="icon-nsf-logo" viewBox="0 0 512 512">
      <path d="m177 201c14 1 16 7 16 17l0 53 0 0-60-74-37 0 0 5c2 0 5 0 15 12l0 82c0 12-5 13-15 14l0 5 39 0 0-5c-13-1-16-4-16-17l0-69 0 0 77 94 5 0 0-103c0-8 1-12 13-14l0-4-37 0z m111 49l-26-13c-14-7-18-11-18-21 0-11 10-16 19-16 20 0 31 20 34 32l5 0 0-38-6 0c0 4-1 6-5 6-5 0-13-6-27-6-33 0-38 24-38 35 0 8 0 23 29 37l12 6c11 5 19 9 19 21 0 2 0 19-21 19-22 0-32-19-36-37l-5 0 0 43 5 0c1-3 2-6 5-6 6 0 14 6 30 6 32 0 43-21 43-36 0-20-13-30-19-32z m30-49c8 1 15 1 15 13l0 84c0 10-5 11-15 12l0 4 62 0 0-4c-12 0-19-1-19-12l0-41c22 0 25 13 26 27l5 0 0-58-4 0c-3 14-6 26-27 26l0-41c0-7 3-8 13-8 30 0 34 11 38 29l4 0 0-34-98 0z m154 27c-2-4-3-8-4-13-1-8-1-16-1-23 3-16 14-24 27-29-2-4-4-8-5-11-14 6-31 8-44-4-3-3-6-6-8-9-5-8-8-16-11-23-3-16 4-27 15-37-3-3-7-7-9-9-10 12-26 20-43 13-3-1-6-3-9-4-8-6-14-12-20-18-8-13-6-27 0-39-4-2-9-4-12-5-5 15-16 28-34 29-6 0-11-1-17-2-7-2-13-4-19-7-13-9-16-22-16-36-4 0-9 0-12 0 0 16-5 32-21 39-4 2-8 3-11 4-9 1-18 2-26 1-15-3-23-14-28-27-4 2-8 4-12 5 7 14 8 31-4 44-3 3-6 6-10 9-7 4-15 8-22 10-15 4-27-4-37-14-3 3-6 6-9 9 12 10 20 26 14 43-2 3-4 6-5 10-6 7-12 13-17 18-14 8-28 6-40 0-2 4-4 8-5 12 15 5 28 16 29 34 0 5-1 10-1 14-3 8-6 16-9 22-8 13-22 16-36 16 0 4 0 9 0 12 16 0 32 5 40 21 1 4 2 8 4 12 0 9 1 17 0 25-2 15-14 23-27 28 2 4 4 9 5 12 14-7 32-8 44 4 4 3 6 6 9 10 4 8 8 16 10 22 3 16-4 27-14 37 3 3 6 7 9 9 10-12 26-20 42-13 4 1 8 3 12 5 6 6 12 12 18 17 8 13 6 26 0 39 4 2 9 4 12 5 5-15 16-28 34-29 5 0 10 0 14 1 8 2 16 5 22 8 14 9 17 22 16 36 4 0 9 0 13 0-1-16 4-32 21-39 4-2 8-4 13-5 8-1 16-1 23-1 16 3 24 14 29 28 4-2 8-4 11-5-6-15-8-32 4-45 4-3 7-6 10-9 8-4 15-7 22-9 15-4 26 4 36 14 3-3 7-6 9-9-12-10-19-26-13-43 2-4 4-9 7-13 5-6 11-12 15-17 13-8 27-6 40 0 1-4 3-9 4-12-15-5-28-16-28-34 0-6 0-10 0-15 3-7 6-15 8-21 9-12 22-16 36-15 0-4 0-9 0-13-14 2-31-4-38-20z m-62-104c6 2 12 8 16 13 4 6 9 13 11 21l-1 4c-2 5-9 6-14 8-2 0-5 1-8 1-6-11-12-21-20-31 2-3 3-6 5-9 3-3 6-7 11-7z m10 69c0 0 0 0 0 0 0 1 1 3 1 4 0 0 0 0 1 1 0 1 0 2 1 3 0 0 0 0 0 1 1 0 1 2 1 2 3 11 6 22 7 34 0 0 0 1 0 2 0 0 0 1 0 2 0 1 0 2 0 2 0 1 0 2 0 2 0 1 0 2 0 2 0 1 0 1 0 2 0 0 0 2 0 2 0 2 0 3 0 4 0 0 0 1 0 1 0 5-1 10-1 15-1 12-3 23-6 34-2 4-3 9-5 13-1 2-1 3-2 5-1 1-1 1-1 2 0 0 0 1-1 2 0 0-1 1-1 2 0 1 0 1 0 1-1 1-1 2-2 3 0 0 0 0 0 1 0 1-1 2-2 3-5 10-12 20-19 29-1 2-3 4-4 5 0 0 0 1-1 1-1 1-3 3-4 5-2 1-3 3-4 4-1 1-2 2-3 2-1 1-2 2-3 3 0 0 0 0 0 1-1 0-2 1-2 1-1 1-2 1-2 2-1 0-1 0-1 1-9 7-18 13-28 18-1 1-1 1-2 1 0 1-1 1-1 1-1 0-2 1-3 1 0 0-1 1-1 1-1 0-2 0-3 1 0 0 0 0 0 0-1 1-2 1-3 1-2 1-4 2-6 2-1 1-2 1-3 2 0 0 0 0 0 0-1 0-2 0-3 1-1 0-1 0-1 0-1 1-2 1-3 1 0 0-1 0-1 0-1 1-2 1-3 1-10 3-22 6-33 7-1 0-2 0-3 0 0 0-1 0-1 0-1 0-2 0-3 0 0 0-1 0-1 0-1 0-2 0-3 0 0 0-1 0-1 0-1 0-2 0-3 0-1 0-2 0-4 0 0 0-1 0-1 0-5 0-10 0-15 0-12-2-23-4-34-7-1 0-2-1-4-1-1 0-2-1-3-1 0 0 0 0 0 0-2-1-5-2-7-3-1 0-3-1-5-2-4-2-9-4-13-6-10-5-20-12-28-19-1-1-2-1-3-2 0 0-1 0-1 0 0-1-1-1-2-2 0 0 0-1 0-1-1 0-2-1-3-2 0 0 0 0-1 0 0-1-1-1-2-2-1-1-2-2-3-4-2-2-6-6-9-10-8-9-14-19-20-29-2-5-4-9-6-13-1-2-1-3-2-5 0-1-1-2-1-3 0 0 0 0 0 0-1-2-1-2-1-4 0 0 0 0 0 0-1-1-1-2-2-3 0 0 0 0 0-1 0-1 0-2-1-3-3-11-5-23-7-34 0-5 0-10 0-15 0 0 0-1 0-2 0-1 0-2 0-2 0-2 0-3 0-4 0-2 0-3 0-4 0-2 0-5 0-8 1-11 4-22 7-33 0-1 1-2 1-3 0 0 0-1 0-1 0-1 0-2 0-3 0 0 1 0 1-1 0-1 0-1 1-2 0-1 0-1 0-2 1-1 1-1 1-2 1-2 2-3 3-5 2-4 4-9 6-13 5-10 12-19 18-28 1-1 2-1 2-3 0 0 0 0 1 0 1-1 1-2 2-2 0-1 0-1 1-1 0-1 1-1 2-2 0-1 0-1 0-1 1-1 2-1 2-2 1-1 3-3 4-4 4-4 7-7 11-10 9-8 19-14 29-20 4-2 8-4 13-6 1 0 3-1 5-2 1 0 2 0 3-1 0 0 1 0 1 0 1-1 2-1 3-1 0 0 0 0 1-1 1 0 2-1 3-1 0 0 0 0 0 0 1 0 3-1 3-1 11-3 22-6 34-7 2 0 5 0 7 0 1 0 3 0 3 0 0 0 1 0 1 0 1 0 2 0 3 0 1 0 2 0 3 0 1 0 2 0 3 0 1 0 2 0 4 0 0 0 0 0 0 0 1 0 2 0 4 0 0 0 0 0 0 0 2 0 5 0 7 0 11 1 22 3 33 6 4 2 8 3 13 5 2 1 4 1 6 3 5 2 9 4 13 6 10 5 19 12 28 18 0 1 1 2 2 2 0 0 1 1 1 1 1 1 1 1 2 2 1 0 1 1 1 1 1 0 2 0 2 1 2 2 5 5 7 7 3 4 6 7 9 11 8 9 14 18 20 29 0 0 0 0 0 0 0 1 1 2 2 3 0 1 0 2 1 2 0 1 0 1 0 1 1 1 1 2 1 3 0 0 0 1 0 1 1 1 1 2 2 3 1 1 1 3 2 5 1 1 2 2 2 3z m-71-118c6-1 12 2 18 5 6 4 14 9 19 16l1 4c0 6-6 10-11 13-2 1-4 3-6 5-10-8-20-15-31-20 1-4 1-8 2-11 2-5 3-11 8-12z m-76-21c7-4 17-3 25-2 2 0 3 0 5 1 5 1 9 3 13 5l2 3c2 6-2 11-4 17-2 2-4 4-6 6-11-3-23-6-36-7 0-3-1-7-2-10 0-5 0-10 3-13z m-79 8c4-4 12-7 18-9 8-1 16-3 24-2l3 2c4 4 3 11 2 17-1 2-1 5-2 7-13 1-25 4-37 7-2-2-4-5-5-8-2-4-5-9-3-14z m-56 22c7-4 13-8 21-10l3 1c6 2 7 9 8 14 1 3 1 5 2 8-12 6-22 13-32 21-3-2-6-4-8-6-4-3-8-6-8-11 2-6 9-12 14-17z m-57 60c4-6 9-14 15-18l4-1c6 0 10 6 13 11 1 2 3 4 4 6-7 10-14 20-20 30-3 0-7-1-10-2-5-1-10-2-11-7-2-7 2-13 5-19z m-29 70c1-6 3-13 6-18l4-2c5-2 11 2 16 4 2 2 4 4 6 5-3 12-6 24-7 37-3 0-6 1-10 2-5 0-10 0-13-3-4-7-3-17-2-25z m10 104c-4-4-7-12-9-18-1-8-3-16-2-24l2-3c4-4 11-3 17-3 2 1 4 2 7 2 1 13 3 25 7 37-3 2-6 4-8 6-4 2-9 5-14 3z m39 69c-6-1-12-8-17-14-4-6-8-13-10-20l1-3c2-6 9-7 14-9 3 0 5-1 7-1 6 11 14 22 22 32-2 2-4 5-6 8-2 3-6 7-11 7z m62 49c-6 1-14-2-20-6-6-4-13-8-17-15l-1-3c0-6 6-10 11-14 2-1 4-3 6-4 10 8 20 15 31 20-1 4-1 7-2 10-2 6-3 11-8 12z m77 22c-6 4-16 3-23 2-7-1-14-2-21-6l-2-4c-2-5 2-11 5-16 1-2 3-4 4-6 12 3 25 6 37 7 1 3 2 7 2 10 1 5 1 10-2 13z m78-9c-4 6-14 9-20 11-7 1-14 2-21 1l-3-2c-4-4-3-11-2-17 0-2 1-5 2-7 12-1 24-4 36-8 2 3 4 6 6 9 2 4 4 8 2 13z m54-21c-6 4-12 8-18 10l-4-1c-5-3-6-9-8-15 0-2-1-5-1-8 11-6 21-12 30-20 3 2 6 3 9 5 4 3 8 7 8 11-3 8-10 14-16 18z m56-56c0 0 0 0 0 0-4 5-8 11-13 15l-3 0c-6 0-10-6-14-10-1-3-3-5-4-7 8-10 15-20 21-32 3 1 7 2 10 2 4 2 9 3 11 8 2 8-4 17-8 24z m31-75c0 1 0 1 0 2-1 5-3 11-6 16l-3 2c-6 2-11-2-16-5-2-1-4-3-7-4 4-12 6-24 7-36 3-1 6-2 10-2 4-1 10-1 13 2 5 7 3 18 2 25z m2-62l-2 3c-5 4-11 3-17 2-2 0-5-1-7-1-1-13-4-25-8-37 3-2 6-4 9-6 4-2 8-4 13-2 5 4 8 13 10 20 1 7 3 14 2 21z"/>
    </symbol>
  
</svg>
