<?xml version="1.0" encoding="utf-8"?>
<!-- Generator: Adobe Illustrator 19.0.0, SVG Export Plug-In . SVG Version: 6.00 Build 0)  -->
<svg version="1.1" id="Layer_1" xmlns="http://www.w3.org/2000/svg" xmlns:xlink="http://www.w3.org/1999/xlink" x="0px" y="0px"
	 viewBox="0 0 221 221" style="enable-background:new 0 0 221 221;" xml:space="preserve">
<style type="text/css">
	.st0{fill-rule:evenodd;clip-rule:evenodd;fill:#00D1AF;}
	.st1{fill-rule:evenodd;clip-rule:evenodd;fill:#FFFFFF;}
</style>
<path class="st0" d="M0,0h221v221H0V0z"/>
<path class="st1" d="M108,123c5.2-2,21-9.7,21-27c0-17.3-12.2-25-25-25s-45,0-45,0s0,3,0,4c7.4,1.5,12,2.2,12,11c0,6.4,0,61.1,0,67
	c0,6.7-5.3,10-12,10c0,2.7,0,5,0,5s11.4-1,19-1s19,1,19,1s0-2.7,0-5c-9.2,0-14-2.2-14-10c0-6,0-29,0-29h12c0,0,7.5,13.1,18,29
	c10.5,15.9,23.7,17.5,33,15c0-0.8,0-3.2,0-4C130.7,164,111.9,129.4,108,123z M83,117V78c0,0,9.3,0,17,0s16,7.9,16,19
	c0,11.1-10.3,20-19,20S83,117,83,117z"/>
<path class="st1" d="M161,64h17c0,0,0,2.4,0,11c0,10.1-5.9,17-19,17c-13,0-18-8.8-18-18s0-11.2,0-18s4.9-17,19-17s17,10,17,10l-6,4
	c0,0-3.1-7-11-7c-4.4,0-11,4.1-11,11s0,10.8,0,15c0,7.5,3.7,13,10,13c7.9,0,12-6.1,12-15c-2.4,0-10,0-10,0V64z"/>
</svg>
