<?xml version="1.0" encoding="utf-8"?>
<!-- Generator: Adobe Illustrator 19.0.0, SVG Export Plug-In . SVG Version: 6.00 Build 0)  -->
<svg version="1.1" id="Layer_1" xmlns="http://www.w3.org/2000/svg" xmlns:xlink="http://www.w3.org/1999/xlink" x="0px" y="0px"
	 viewBox="-401 402 221 221" style="enable-background:new -401 402 221 221;" xml:space="preserve">
<style type="text/css">
	.st0{fill:#464342;}
	.st1{fill:#FFFFFF;}
</style>
<path class="st0" d="M-401,402h221v221h-221V402z"/>
<g>
	<g>
		<path class="st1" d="M-363.1,511.6c0,28.8,16.7,53.7,41,65.4l-34.7-95C-360.8,491.1-363.1,501.1-363.1,511.6z"/>
		<path class="st1" d="M-241.3,507.9c0-9-3.2-15.2-6-20.1c-3.7-6-7.1-11.1-7.1-17.1c0-6.7,5.1-12.9,12.2-12.9c0.3,0,0.6,0,0.9,0.1
			c-12.9-11.9-30.2-19.1-49.1-19.1c-25.4,0-47.8,13-60.8,32.8c1.7,0.1,3.3,0.1,4.7,0.1c7.6,0,19.4-0.9,19.4-0.9
			c3.9-0.2,4.4,5.5,0.5,6c0,0-3.9,0.5-8.3,0.7l26.5,78.8l15.9-47.7l-11.3-31c-3.9-0.2-7.6-0.7-7.6-0.7c-3.9-0.2-3.5-6.2,0.5-6
			c0,0,12,0.9,19.2,0.9c7.6,0,19.4-0.9,19.4-0.9c3.9-0.2,4.4,5.5,0.5,6c0,0-3.9,0.5-8.3,0.7l26.3,78.2l7.3-24.2
			C-243.7,521.4-241.3,514.2-241.3,507.9z"/>
		<path class="st1" d="M-289.1,518l-21.8,63.4c6.5,1.9,13.4,3,20.5,3c8.5,0,16.6-1.5,24.1-4.1c-0.2-0.3-0.4-0.6-0.5-1L-289.1,518z"
			/>
		<path class="st1" d="M-226.6,476.7c0.3,2.3,0.5,4.8,0.5,7.5c0,7.4-1.4,15.7-5.5,26l-22.2,64.2c21.6-12.6,36.2-36,36.2-62.9
			C-217.7,499-220.9,487.1-226.6,476.7z"/>
		<path class="st1" d="M-290.4,426.8c-46.7,0-84.8,38-84.8,84.8c0,46.7,38,84.8,84.8,84.8c46.7,0,84.8-38,84.8-84.8
			C-205.6,464.9-243.6,426.8-290.4,426.8z M-290.4,592.5c-44.6,0-80.9-36.3-80.9-80.9c0-44.6,36.3-80.9,80.9-80.9
			c44.6,0,80.9,36.3,80.9,80.9C-209.5,556.2-245.8,592.5-290.4,592.5z"/>
	</g>
</g>
</svg>
